<?xml version="1.0" encoding="utf-8"?>
<!-- Generator: Adobe Illustrator 25.0.1, SVG Export Plug-In . SVG Version: 6.00 Build 0)  -->
<svg version="1.0" id="katman_1" xmlns="http://www.w3.org/2000/svg" xmlns:xlink="http://www.w3.org/1999/xlink" x="0px" y="0px"
	 viewBox="0 0 2620.9 1746.2" style="enable-background:new 0 0 2620.9 1746.2;" xml:space="preserve">
<style type="text/css">
	.st0{fill:#142328;}
	.st1{fill:#06C167;}
	.st2{fill:#F6F0EA;}
</style>
<g id="Layer_2">
	<g id="Squircles">
		<path class="st0" d="M882.3,210.1h784.3c140.8,0,254.9,114.1,254.9,254.9v784.3c0,140.8-114.1,254.9-254.9,254.9H882.3
			c-140.8,0-254.9-114.1-254.9-254.9V465C627.3,324.2,741.5,210.1,882.3,210.1z"/>
		<path class="st1" d="M1247.6,1077.3c0.4-37.1-29.3-67.6-66.4-68c-37.1-0.4-67.6,29.3-68,66.4c-0.4,37.1,29.3,67.6,66.4,68
			c0.3,0,0.5,0,0.8,0c36.6,0.5,66.7-28.8,67.2-65.4C1247.6,1077.9,1247.6,1077.6,1247.6,1077.3 M1302.5,968.7v217.9h-55.9V1167
			c-19.9,16.1-44.8,24.8-70.5,24.5c-63.1,1.7-115.7-48.1-117.4-111.3c-1.7-63.1,48.1-115.7,111.3-117.4c2-0.1,4.1-0.1,6.1,0
			c25.8-0.1,50.8,8.8,70.8,25.2v-19.4H1302.5z M1488.1,1136.9h-42c-12.8,0-21.1-5.6-21.1-17.1v-102h63.1v-49.1h-62.9v-62.1h-56.5
			v62.1h-42.4v49.3h42.5v115.8c0,29.2,21.1,52.4,59,52.4h60.5L1488.1,1136.9z M1615.5,1191.8c64.6,0,101-30.2,101-72
			c0-29.7-21.5-51.9-66.7-61.4l-47.7-9.6c-27.7-5-36.4-10.1-36.4-20.1c0-13.2,13.3-21.2,37.9-21.2c26.6,0,46.2,7.1,51.8,31.2h55.9
			c-3.1-45.3-36.5-75.5-104.2-75.5c-58.4,0-99.5,23.7-99.5,69.5c0,31.7,22.6,52.4,71.3,62.5l53.3,12.1c21,4,26.6,9.5,26.6,18.1
			c0,13.6-16.1,22.2-41.6,22.2c-32.3,0-50.8-7-57.9-31.2h-56.5C1511.2,1161.6,1545.7,1191.8,1615.5,1191.8 M832.2,891.5H1043v50.3
			H889.1v72.1h149.8v48.4H889.1v72.6H1043v50.4H832.2V891.5z"/>
		<path class="st2" d="M1711.7,636.3v-39.5h-15c-21.3-0.9-41.4,9.9-52.5,28.2v-26.5h-42.9V813h43.3V691c0-33.2,20.6-54.7,48.9-54.7
			H1711.7z M1400.5,686.3c7.3-36.8,43-60.8,79.8-53.5c27,5.3,48.1,26.5,53.5,53.5H1400.5z M1468.3,594.3
			c-61.5-0.5-111.8,48.9-112.3,110.4c0,0.4,0,0.7,0,1.1c0,64,50.6,111.9,116.2,111.9c37,0.7,72-16.3,94.3-45.8l-31.3-22.8
			c-14.5,20.3-38,32.1-62.9,31.6c-36,0.5-66.9-25.5-72.6-61H1577v-14c0-63.9-46.2-111.4-109.3-111.4 M1221,780.7
			c-41.1-0.3-74.3-33.8-74-75s33.8-74.3,75-74c40.9,0.3,74,33.5,74,74.5c-0.1,41.2-33.6,74.6-74.8,74.5
			C1221.1,780.7,1221,780.7,1221,780.7 M1103.5,813h42.9v-27c20.7,20.7,48.8,32.3,78,32.3c61.9,1.7,113.5-47.2,115.1-109.1
			c1.7-61.9-47.2-113.5-109.1-115.1c-2-0.1-4-0.1-6,0c-29.1,0-57.1,11.6-77.6,32.3V518.5h-43.3V813z M950.9,778.5
			c41.6,0,73.7-31.6,73.7-78.2V518.5h45V813H1025v-27.4c-20.9,21.1-49.5,32.7-79.2,32.3c-64.6,0-113.6-45.9-113.6-115.3V518.5h45.4
			v181.8c0,47.5,31.7,78.2,73.8,78.2"/>
	</g>
</g>
</svg>
